<svg width="18" height="18" viewBox="0 0 18 18" fill="none" xmlns="http://www.w3.org/2000/svg">
<g opacity="0.8">
<path d="M10.5542 2.29171L10.3601 3.01615L10.5542 2.29171C10.4206 2.25593 10.2795 2.2591 10.2529 2.25969C10.251 2.25974 10.2497 2.25977 10.249 2.25977H7.74902C7.74836 2.25977 7.74703 2.25974 7.7451 2.25969C7.71858 2.2591 7.57741 2.25593 7.44388 2.29171L7.63799 3.01615L7.44388 2.29171C7.12036 2.3784 6.86766 2.6311 6.78097 2.95462C6.74519 3.08816 6.74836 3.22932 6.74895 3.25584C6.74899 3.25777 6.74902 3.2591 6.74902 3.25977C6.74902 3.26641 6.74896 3.27414 6.74889 3.28283C6.74825 3.36302 6.74696 3.52518 6.78736 3.67594C6.89138 4.06417 7.19462 4.36741 7.58285 4.47143C7.73361 4.51183 7.89577 4.51054 7.97596 4.5099C7.98465 4.50983 7.99238 4.50977 7.99902 4.50977H9.99902C10.0057 4.50977 10.0134 4.50983 10.0221 4.5099C10.1023 4.51054 10.2644 4.51183 10.4152 4.47143C10.8034 4.36741 11.1067 4.06417 11.2107 3.67594C11.2511 3.52518 11.2498 3.36302 11.2492 3.28283C11.2491 3.27414 11.249 3.26641 11.249 3.25977C11.249 3.2591 11.2491 3.25777 11.2491 3.25584C11.2497 3.22932 11.2529 3.08816 11.2171 2.95462C11.1304 2.6311 10.8777 2.3784 10.5542 2.29171Z" stroke="white" stroke-width="1.5"/>
<rect x="4.5" y="2.25977" width="9" height="13.5" rx="1.5" stroke="white" stroke-width="1.5"/>
<circle cx="9" cy="13.5098" r="0.75" fill="white"/>
</g>
</svg>
