<svg width="355" height="53" viewBox="0 0 355 53" fill="none" xmlns="http://www.w3.org/2000/svg">
<path d="M354.71 32.1521C354.512 31.8619 354.512 30.7012 354.71 28.6683C354.908 26.6371 354.116 25.3773 352.335 24.8943C350.552 24.4095 346.293 23.9265 339.562 23.4435C332.83 22.9587 329.463 21.9927 329.463 20.54C329.463 19.0874 329.264 18.2169 328.866 17.9267C328.47 17.6366 328.174 15.9911 327.976 12.9921C327.778 9.99314 327.53 8.25035 327.232 7.76734C326.936 7.28253 326.936 6.7022 327.232 6.02634C327.53 5.34869 327.628 4.67104 327.53 3.99338C327.43 3.31573 327.084 2.9769 326.489 2.9769C325.895 2.9769 325.399 2.7354 325.005 2.25059C324.609 1.76577 323.766 1.42875 322.48 1.23411C321.191 1.04126 315.893 0.895278 306.586 0.797956C297.281 0.700633 290.396 0.50779 285.942 0.217624C281.487 -0.0725414 279.11 -0.0725414 278.814 0.217624C278.516 0.50779 276.289 0.556451 272.127 0.363608C267.97 0.170765 264.354 0.122104 261.285 0.217624C258.216 0.314947 256.632 0.459128 256.533 0.653774C256.433 0.846617 250.293 0.94394 238.115 0.94394C225.936 0.94394 215.736 1.08992 207.519 1.38009C199.3 1.67025 176.626 1.8631 139.494 1.96042C102.362 2.05774 83.6974 2.20192 83.4993 2.39657C83.3012 2.58941 79.3898 2.68674 71.7649 2.68674C64.1401 2.68674 60.2787 2.78406 60.1806 2.9769C60.0826 3.16974 54.7346 3.45991 44.1407 3.8474C33.5447 4.23489 26.5642 4.62057 23.1989 5.00806C19.8317 5.39555 15.8722 5.49107 11.3165 5.29823C6.76081 5.10538 4.38593 5.29823 4.18785 5.87856C3.98978 6.45889 3.59363 6.84638 2.99941 7.03922C2.40519 7.23206 2.05906 7.66821 1.95903 8.34587C1.86099 9.02352 2.00905 9.65251 2.40519 10.2328C2.80134 10.8132 2.99941 11.3935 2.99941 11.9738C2.99941 12.5542 2.60327 14.151 1.81097 16.7643C1.01868 19.3776 0.672549 21.3114 0.770586 22.5694C0.868622 23.8274 0.672549 25.4242 0.176365 27.3598C-0.317818 29.2955 0.226384 30.5048 1.81097 30.9878C3.39556 31.4708 4.584 31.7141 5.37629 31.7141C6.16859 31.7141 6.66277 31.907 6.86085 32.2944C7.05892 32.6819 7.65314 32.8748 8.64351 32.8748C9.63387 32.8748 10.1781 33.0208 10.2781 33.3109C10.3761 33.6011 10.7723 33.7939 11.4666 33.8913C11.7206 33.9273 11.9467 33.976 12.1468 34.0372C12.1468 34.0372 42.211 32.3152 49.5578 31.9259C56.9045 31.5366 57.4716 30.995 57.4716 30.995L36.7559 33.4317C36.792 33.538 36.828 33.6425 36.864 33.7489C36.7659 33.7002 36.6659 33.6516 36.5679 33.6029C36.4858 33.5632 36.4038 33.5218 36.3198 33.4821L13.3833 36.1801C13.3833 36.1801 13.5713 35.2556 13.0511 34.5977C13.2832 34.9546 13.3973 35.6863 13.3973 36.7965V38.6835H13.9915C13.8935 38.7322 13.7934 38.7808 13.6954 38.8295C13.4973 38.9268 13.3993 40.5236 13.3993 43.6199C13.3993 46.7162 13.8454 48.313 14.7358 48.4104C15.6261 48.5077 16.1723 48.459 16.3704 48.2644C16.4684 48.167 16.5684 48.0715 16.6665 47.9742V48.8447C16.6665 49.425 17.0126 49.8612 17.7069 50.1513C18.3991 50.4415 19.0434 50.5388 19.6376 50.4415C20.2318 50.3442 20.5779 50.1513 20.678 49.8612C20.728 49.7152 20.776 49.571 20.826 49.425C20.9741 49.571 21.1221 49.7152 21.2722 49.8612C21.4202 50.0072 21.5683 50.1513 21.7184 50.2973C21.7684 50.0558 21.8184 49.8125 21.8664 49.571C21.9645 49.0862 21.9164 48.796 21.7184 48.7005C21.6203 48.6519 21.5203 48.6032 21.4222 48.5545C21.6703 48.4572 21.9184 48.3617 22.1645 48.2644C22.6587 48.0715 23.6011 48.0229 24.9876 48.1184C25.6798 48.167 26.3741 48.2157 27.0663 48.2644V47.1037C27.1644 47.201 27.2644 47.2965 27.3625 47.3939C27.5605 47.5867 27.8086 47.6354 28.1047 47.5399C28.2528 47.4912 28.4008 47.4425 28.5509 47.3939V48.2644H28.847C29.0451 48.2644 30.2835 47.9255 32.5604 47.2479C34.8372 46.5702 37.1161 46.2314 39.3929 46.2314C41.6698 46.2314 42.9082 46.1341 43.1063 45.9412C43.2063 45.8439 43.3044 45.7484 43.4024 45.6511C43.4524 45.7484 43.5004 45.8439 43.5505 45.9412C43.6485 46.1341 43.9966 46.1341 44.5908 45.9412C45.1851 45.7484 45.6792 45.7484 46.0754 45.9412C46.4715 46.1341 47.3139 46.2314 48.6003 46.2314H50.5311V45.9412C50.5311 45.7484 50.9772 45.6024 51.8675 45.5051C52.7579 45.4078 53.204 45.2149 53.204 44.9248V44.4886C53.2541 44.6814 53.3021 44.8761 53.3521 45.0689C53.4501 45.4564 53.8463 45.6006 54.5405 45.5051C55.2328 45.4078 55.6289 45.4564 55.729 45.6511C55.829 45.8439 56.1251 45.9412 56.6193 45.9412C57.1135 45.9412 57.4116 45.7953 57.5096 45.5051C57.6077 45.2149 57.8057 45.0689 58.1039 45.0689H58.55V45.9394C58.9462 45.7935 59.3423 45.6493 59.7385 45.5033C60.5308 45.2131 61.175 45.2131 61.6692 45.5033C62.1634 45.7935 62.5595 45.7935 62.8576 45.5033C63.0057 45.3573 63.1537 45.2131 63.3038 45.0671C63.4018 45.1645 63.5019 45.26 63.5999 45.3573C63.798 45.5501 64.7383 45.6475 66.4229 45.6475C68.1076 45.6475 69.0459 45.7448 69.244 45.9376C69.4421 46.1305 70.1343 46.1305 71.3228 45.9376C72.5112 45.7448 74.64 45.6475 77.7091 45.6475C80.7783 45.6475 82.809 45.7448 83.7994 45.9376C84.7898 46.1305 85.334 46.1305 85.434 45.9376C85.532 45.7448 86.1263 45.5988 87.2167 45.5015C88.3051 45.4042 89.9397 45.4042 92.1185 45.5015C93.2069 45.5501 94.2973 45.5988 95.3857 45.6475V45.0671H96.276C96.226 45.1645 96.176 45.26 96.128 45.3573C96.0779 45.4546 96.0299 45.5501 95.9799 45.6475H99.5452V44.4868C99.7933 44.7283 100.041 44.9698 100.288 45.2131C100.782 45.6961 101.476 45.7935 102.366 45.5033C103.257 45.2131 104.595 45.2131 106.376 45.5033C108.158 45.7935 109.395 45.8421 110.089 45.6493C110.435 45.5519 110.781 45.4564 111.13 45.3591C111.032 45.1663 110.931 44.9716 110.833 44.7788C110.635 44.3913 110.239 44.1984 109.645 44.1984H108.755V45.0689C108.557 45.0203 108.359 44.9716 108.16 44.923C107.764 44.8256 107.516 44.6328 107.418 44.3426C107.368 44.1966 107.318 44.0525 107.27 43.9065C107.32 44.0038 107.368 44.0993 107.418 44.1966C107.516 44.3895 107.764 44.4381 108.16 44.3426C108.359 44.294 108.557 44.2453 108.755 44.1966C108.853 44.0507 108.953 43.9065 109.051 43.7605C109.149 43.6145 109.249 43.4703 109.347 43.3243C109.445 43.4217 109.545 43.5172 109.643 43.6145C109.841 43.8074 110.435 43.8074 111.426 43.6145C111.92 43.5172 112.416 43.4217 112.91 43.3243C112.762 43.4703 112.614 43.6145 112.464 43.7605C112.316 43.9065 112.168 44.0507 112.018 44.1966C112.166 44.2453 112.314 44.294 112.464 44.3426C112.76 44.4399 113.008 44.3913 113.206 44.1966C113.304 44.0993 113.404 44.0038 113.502 43.9065C113.6 44.0993 113.7 44.294 113.799 44.4868C113.997 44.8743 114.443 45.1158 115.135 45.2131C115.827 45.3104 116.323 45.2131 116.62 44.923C116.768 44.777 116.916 44.6328 117.066 44.4868V45.0671H121.521C124.492 45.0671 126.027 45.1645 126.125 45.3573C126.223 45.5501 126.669 45.6475 127.462 45.6475H128.65V45.0671C129.144 45.1645 129.64 45.26 130.135 45.3573C130.629 45.4546 131.125 45.5501 131.619 45.6475V45.3573C131.619 45.1645 132.065 45.0185 132.956 44.9212C133.402 44.8725 133.846 44.8238 134.292 44.7752C134.144 44.6292 133.996 44.485 133.846 44.339C133.698 44.193 133.55 44.0489 133.4 43.9029H134.588V45.6439C139.44 45.5952 144.292 45.5465 149.144 45.4979C158.847 45.4006 164.045 45.305 164.739 45.2077C165.432 45.1104 165.828 44.9662 165.928 44.7716C165.978 44.6742 166.028 44.5787 166.076 44.4814C166.224 44.5787 166.372 44.6742 166.522 44.7716C166.818 44.9644 172.562 45.0617 183.75 45.0617C194.939 45.0617 202.513 45.2077 206.475 45.4979C210.436 45.788 214.94 45.8854 219.99 45.788C225.04 45.6907 229.992 45.7394 234.843 45.934C239.695 46.1269 245.487 46.563 252.22 47.2407C258.952 47.9183 263.162 48.2085 264.845 48.1112C266.527 48.0139 268.014 48.0625 269.3 48.2572C270.589 48.45 271.677 48.45 272.567 48.2572C273.46 48.0643 281.085 48.45 295.44 49.4178C309.799 50.3856 318.164 50.82 320.541 50.7245C322.918 50.6271 326.087 50.8704 330.047 51.4508C334.006 52.0311 336.583 52.2726 337.77 52.1771C338.956 52.0798 341.037 52.2258 344.008 52.6132C346.979 53.0007 348.514 53.0963 348.612 52.9034C348.712 52.7106 349.604 52.5646 351.287 52.4673C352.969 52.3699 353.812 51.3553 353.812 49.4196C353.812 47.484 354.01 45.1627 354.406 42.452C354.802 39.7432 355 37.4201 355 35.4845C355 33.5488 354.9 32.4368 354.702 32.1467L354.71 32.1521ZM27.3565 42.0213V42.4575H26.7622V41.587H27.3565V42.0231V42.0213ZM35.9716 36.6505C35.7736 36.7479 35.5755 36.8434 35.3774 36.9407C35.4755 36.7947 35.5755 36.6505 35.6735 36.5045C35.8716 36.2144 36.0697 36.1171 36.2678 36.2144C36.3658 36.263 36.4658 36.3117 36.5639 36.3604C36.3658 36.4577 36.1677 36.5532 35.9696 36.6505H35.9716ZM41.9119 42.1655C41.9619 42.0195 42.0099 41.8753 42.0599 41.7293C42.1099 41.5833 42.1579 41.4392 42.208 41.2932C42.258 41.3905 42.306 41.486 42.356 41.5834C42.406 41.6807 42.4541 41.7762 42.5041 41.8735C42.404 41.9222 42.306 41.9708 42.208 42.0195C42.1079 42.0682 42.0099 42.1168 41.9119 42.1655ZM43.3964 43.3261C43.2984 43.519 43.1983 43.7136 43.1003 43.9065C43.0023 43.665 42.9022 43.4217 42.8042 43.1802C42.7061 42.9387 42.6061 42.6954 42.5081 42.4538C42.7061 42.5025 42.9042 42.5512 43.1023 42.5998C43.3004 42.6485 43.4984 42.6972 43.6965 42.7458C43.5985 42.9387 43.4984 43.1333 43.4004 43.3261H43.3964ZM43.8426 33.4569C43.7445 33.6498 43.5945 33.7471 43.3964 33.7471H43.1003V32.8766C43.2483 32.9252 43.3964 32.9739 43.5465 33.0226C43.6945 33.0712 43.8426 33.1199 43.9926 33.1685C43.9426 33.2659 43.8946 33.3614 43.8446 33.4587L43.8426 33.4569ZM53.2 43.9083H52.9039C52.9539 43.7623 53.002 43.6181 53.052 43.4721C53.102 43.3261 53.15 43.182 53.2 43.036C53.2501 43.182 53.2981 43.3261 53.3481 43.4721C53.3981 43.6181 53.4461 43.7623 53.4961 43.9083H53.2ZM54.8346 39.6982C54.5385 39.7955 54.3385 39.7468 54.2404 39.5522C54.1904 39.4549 54.1424 39.3593 54.0924 39.262C54.2904 39.3107 54.4885 39.3593 54.6866 39.408C54.8847 39.4567 55.0827 39.5053 55.2808 39.554C55.1328 39.6027 54.9847 39.6513 54.8346 39.7V39.6982ZM58.2499 37.8112C58.0518 37.7139 57.8538 37.6184 57.6557 37.521V38.6817H57.0615C57.1115 38.4888 57.1595 38.2942 57.2095 38.1014C57.3076 37.7139 57.2595 37.4724 57.0615 37.375C56.9634 37.3264 56.8634 37.2777 56.7654 37.2291H57.5076C58.0018 37.2291 58.3499 37.375 58.548 37.6652C58.6461 37.8112 58.7461 37.9554 58.8441 38.1014C58.6461 38.004 58.448 37.9085 58.2499 37.8112ZM59.7345 45.0689H59.4383V44.1984C59.5364 44.3444 59.6364 44.4886 59.7345 44.6346C59.8325 44.7806 59.9325 44.9248 60.0306 45.0707H59.7345V45.0689ZM60.0306 37.2309C59.8325 37.3282 59.6344 37.4237 59.4363 37.521C59.5344 37.2795 59.6344 37.0362 59.7325 36.7947C59.8305 36.5532 59.9305 36.3099 60.0286 36.0684C60.1266 36.2144 60.2266 36.3586 60.3247 36.5045C60.4247 36.6505 60.5228 36.7947 60.6208 36.9407C60.4227 37.038 60.2246 37.1335 60.0266 37.2309H60.0306ZM62.2574 34.3274C61.7632 34.5203 61.5651 34.7636 61.6632 35.0537C61.7132 35.1997 61.7612 35.3439 61.8112 35.4899C61.4151 35.4412 61.0189 35.3925 60.6228 35.3439C59.8305 35.2466 59.4344 35.1024 59.4344 34.9077C59.4344 34.7131 59.9285 34.5203 60.9189 34.3274C61.4151 34.2301 61.9093 34.1346 62.4035 34.0372C62.3534 33.7957 62.3054 33.5524 62.2554 33.3109C62.2054 33.0694 62.1574 32.8261 62.1073 32.5846C62.2554 32.8261 62.4035 33.0676 62.5535 33.3109C62.7016 33.5524 62.8496 33.7939 62.9997 34.0372C62.7516 34.1346 62.5055 34.2301 62.2574 34.3274ZM97.3104 33.8913C97.1623 33.9399 97.0143 33.9886 96.8642 34.0372C96.9643 33.8444 97.0623 33.6498 97.1603 33.4569C97.2604 33.2641 97.3584 33.0694 97.4565 32.8766C97.5065 33.0226 97.5545 33.1667 97.6045 33.3127C97.6545 33.4587 97.7025 33.6029 97.7526 33.7489C97.6045 33.7975 97.4565 33.8462 97.3064 33.8949L97.3104 33.8913ZM101.024 36.3586C101.024 36.5514 100.876 36.6974 100.578 36.7947C100.43 36.8434 100.282 36.892 100.131 36.9407V36.0702H101.022V36.3604L101.024 36.3586ZM107.856 34.7617V34.3256C107.956 34.4716 108.054 34.6158 108.152 34.7617C108.252 34.9077 108.351 35.0519 108.449 35.1979H107.854V34.7617H107.856ZM108.302 35.6322C108.599 35.3421 108.847 35.1961 109.045 35.1961H109.341C109.291 35.2934 109.241 35.3889 109.193 35.4863C109.093 35.6791 108.847 35.8251 108.451 35.9224C108.252 35.9711 108.054 36.0197 107.856 36.0684C108.004 35.9224 108.152 35.7782 108.302 35.6322ZM108.154 39.2602H108.451C108.401 39.3575 108.353 39.4531 108.302 39.5504C108.252 39.6477 108.204 39.7432 108.154 39.8406C108.104 39.7432 108.056 39.6477 108.006 39.5504C107.956 39.4531 107.908 39.3575 107.858 39.2602H108.154ZM104.887 41.4374C104.689 41.3887 104.491 41.34 104.293 41.2914C104.343 41.0985 104.391 40.9039 104.441 40.711C104.539 40.3236 104.689 40.1307 104.887 40.1307C105.085 40.1307 105.233 40.3722 105.333 40.857C105.383 41.0985 105.431 41.34 105.481 41.5834C105.283 41.5347 105.085 41.486 104.887 41.4374ZM106.372 44.9212C106.274 44.8725 106.174 44.8238 106.076 44.7752C106.126 44.6778 106.174 44.5823 106.224 44.485C106.274 44.3877 106.322 44.2922 106.372 44.1948C106.422 44.3408 106.47 44.485 106.52 44.631C106.57 44.777 106.618 44.9212 106.668 45.0671C106.57 45.0185 106.47 44.9698 106.372 44.9212ZM109.639 41.5834H109.343V42.0195C109.343 42.3097 108.897 42.5512 108.006 42.7458C107.56 42.8431 107.116 42.9387 106.67 43.036C106.868 42.7945 107.066 42.5512 107.264 42.3097C107.66 41.8249 108.006 41.6807 108.304 41.8735C108.453 41.9708 108.601 42.0664 108.751 42.1637C108.849 42.0177 108.949 41.8735 109.047 41.7275C109.245 41.4374 109.443 41.34 109.641 41.4374C109.739 41.486 109.839 41.5347 109.937 41.5834H109.641H109.639ZM111.57 35.6322C111.52 35.7782 111.47 35.9224 111.422 36.0684C111.372 35.8269 111.322 35.5836 111.274 35.3421C111.224 35.1006 111.176 34.8573 111.126 34.6158C111.224 34.7131 111.324 34.8086 111.424 34.9059C111.622 35.0988 111.672 35.3421 111.572 35.6322H111.57ZM113.5 43.3243C113.302 43.3243 113.154 43.227 113.054 43.0342C113.004 42.9369 112.956 42.8413 112.906 42.744C113.004 42.6954 113.104 42.6467 113.202 42.598C113.3 42.5494 113.4 42.5007 113.498 42.452C113.548 42.598 113.596 42.7422 113.646 42.8882C113.696 43.0342 113.745 43.1784 113.795 43.3243H113.498H113.5ZM115.283 42.0177C114.887 41.9204 114.689 41.7762 114.689 41.5815V41.2914H115.135C115.431 41.2914 115.629 41.4374 115.729 41.7275C115.779 41.8735 115.827 42.0177 115.877 42.1637C115.679 42.115 115.481 42.0664 115.283 42.0177ZM115.729 37.5174H115.283V36.6469C115.431 36.7929 115.579 36.9371 115.729 37.0831C115.877 37.2291 116.025 37.3732 116.175 37.5192H115.729V37.5174ZM116.025 33.4533C115.729 33.4533 115.333 33.7435 114.837 34.3238C114.589 34.614 114.343 34.9041 114.095 35.1943C114.293 34.8555 114.491 34.5166 114.689 34.1778C115.085 33.5002 115.481 33.21 115.877 33.3073C116.075 33.356 116.273 33.4046 116.472 33.4533H116.025ZM139.048 33.4533V33.1631C139.196 33.2118 139.344 33.2605 139.494 33.3091C139.642 33.3578 139.79 33.4064 139.94 33.4551C139.792 33.5038 139.644 33.5524 139.494 33.6011C139.346 33.6497 139.198 33.6984 139.048 33.7471V33.4569V33.4533ZM131.027 32.5828C131.225 32.6315 131.423 32.6801 131.621 32.7288C132.017 32.8261 132.215 32.9703 132.215 33.1649V33.4551C132.067 33.4064 131.919 33.3578 131.769 33.3091C131.621 33.2605 131.473 33.2118 131.323 33.1631V34.0336H130.729C130.779 33.7921 130.827 33.5488 130.877 33.3073C130.927 33.0658 130.975 32.8225 131.025 32.581L131.027 32.5828ZM130.285 32.5828H130.731C130.631 32.873 130.533 33.1631 130.435 33.4533C130.337 33.7435 130.237 34.0336 130.139 34.3238C129.991 34.2751 129.842 34.2265 129.692 34.1778C129.544 34.1292 129.396 34.0805 129.246 34.0318C129.346 33.7903 129.444 33.547 129.542 33.3055C129.74 32.8207 129.989 32.5792 130.285 32.5792V32.5828ZM125.235 35.7764C125.285 35.6791 125.335 35.5836 125.383 35.4863C125.483 35.5836 125.581 35.6791 125.679 35.7764C125.777 35.8738 125.877 35.9693 125.975 36.0666H125.085C125.135 35.9693 125.185 35.8738 125.233 35.7764H125.235ZM123.898 37.2273V36.6469C124.096 36.7929 124.294 36.9371 124.492 37.0831C124.691 37.2291 124.889 37.3732 125.087 37.5192C124.889 37.5679 124.691 37.6166 124.492 37.6652C124.294 37.7139 124.096 37.7625 123.898 37.8112V37.2309V37.2273ZM122.858 37.5174H123.304C123.206 37.7103 123.106 37.9049 123.008 38.0978C122.91 38.2906 122.81 38.4852 122.712 38.6781C122.662 38.4852 122.614 38.2906 122.564 38.0978C122.514 37.9049 122.464 37.7103 122.416 37.5174H122.862H122.858ZM117.956 39.2584C117.758 39.4513 117.56 39.6459 117.362 39.8387C117.412 39.5486 117.46 39.2584 117.51 38.9683C117.56 38.6781 117.608 38.3879 117.658 38.0978C117.806 38.1951 117.954 38.2906 118.104 38.3879C118.252 38.4852 118.4 38.5808 118.55 38.6781C118.352 38.8709 118.154 39.0656 117.956 39.2584ZM122.116 44.9194C122.016 44.8707 121.918 44.822 121.82 44.7734C121.87 44.676 121.918 44.5805 121.968 44.4832C122.018 44.3859 122.066 44.2904 122.116 44.193C122.166 44.339 122.214 44.4832 122.264 44.6292C122.314 44.7752 122.362 44.9193 122.412 45.0653C122.312 45.0167 122.214 44.968 122.116 44.9194ZM123.75 44.7734C123.652 44.9662 123.454 45.0149 123.156 44.9194C123.008 44.8707 122.86 44.822 122.71 44.7734C122.76 44.676 122.81 44.5805 122.858 44.4832C122.958 44.2904 123.154 44.2417 123.452 44.3372C123.6 44.3859 123.748 44.4345 123.898 44.4832C123.848 44.5805 123.8 44.676 123.75 44.7734ZM123.156 43.9029H122.414C122.612 43.71 122.81 43.5154 123.008 43.3225C123.206 43.1297 123.404 42.9351 123.602 42.7422C123.652 42.9351 123.7 43.1297 123.75 43.3225C123.8 43.5154 123.848 43.71 123.898 43.9029H123.156ZM123.898 41.4356C123.502 41.3382 123.156 41.4356 122.858 41.7257C122.71 41.8717 122.562 42.0159 122.412 42.1619V41.2914C122.164 41.34 121.916 41.3887 121.669 41.4374C121.421 41.486 121.175 41.5347 120.927 41.5834C121.323 41.2932 121.719 41.003 122.116 40.7129C122.908 40.1325 123.552 39.8424 124.046 39.8424H124.789C124.739 40.1325 124.689 40.4227 124.641 40.7129C124.591 41.003 124.541 41.2932 124.492 41.5834C124.294 41.5347 124.096 41.486 123.898 41.4374V41.4356ZM125.977 44.0489C125.581 43.9515 125.333 44.0489 125.235 44.339C125.185 44.485 125.137 44.6292 125.087 44.7752C124.989 44.6292 124.889 44.485 124.791 44.339C124.593 44.0489 124.593 43.8074 124.791 43.6127C124.989 43.4199 125.237 43.3225 125.533 43.3225C125.829 43.3225 126.077 43.4685 126.275 43.7587C126.373 43.9047 126.473 44.0489 126.571 44.1948C126.373 44.1462 126.175 44.0975 125.977 44.0489ZM127.76 40.4209C127.662 40.6137 127.562 40.8084 127.464 41.0012C127.414 40.8084 127.366 40.6137 127.316 40.4209C127.266 40.228 127.218 40.0334 127.167 39.8406H128.058C127.96 40.0334 127.86 40.228 127.762 40.4209H127.76ZM128.65 36.6469H128.204C127.908 36.6469 127.66 36.4541 127.462 36.0666C127.364 35.8738 127.264 35.6791 127.165 35.4863C127.414 35.5836 127.662 35.6791 127.908 35.7764C128.404 35.9693 128.65 36.1639 128.65 36.3568V36.6469ZM128.502 34.6158C128.354 34.5184 128.206 34.4229 128.056 34.3256C127.958 34.4716 127.858 34.6158 127.76 34.7617C127.562 35.0519 127.314 35.1979 127.017 35.1979C126.721 35.1979 126.521 35.0051 126.423 34.6176C126.323 34.2301 126.423 33.9886 126.719 33.8913C127.015 33.7939 127.412 33.7939 127.908 33.8913C128.404 33.9886 128.7 34.1814 128.798 34.4716C128.848 34.6176 128.896 34.7618 128.946 34.9077C128.798 34.8104 128.65 34.7149 128.5 34.6176L128.502 34.6158ZM128.65 33.7453H128.354V32.8748C128.502 32.9234 128.65 32.9721 128.8 33.0208C128.948 33.0694 129.096 33.1181 129.246 33.1667C129.196 33.2641 129.148 33.3596 129.098 33.4569C128.998 33.6498 128.85 33.7471 128.652 33.7471L128.65 33.7453ZM129.244 36.0684C129.344 35.9224 129.442 35.7782 129.54 35.6322C129.738 35.3421 130.085 35.1961 130.581 35.1961H131.323V36.6469C130.977 36.5496 130.629 36.4541 130.283 36.3568C129.937 36.2594 129.59 36.1639 129.242 36.0666L129.244 36.0684ZM132.215 41.7293V42.1655C132.067 42.0682 131.919 41.9726 131.769 41.8753C131.621 41.778 131.473 41.6825 131.323 41.5851C131.273 41.7311 131.223 41.8753 131.175 42.0213C131.125 42.1673 131.075 42.3115 131.027 42.4575C130.879 42.4088 130.731 42.3601 130.581 42.3115C130.285 42.2141 130.135 42.07 130.135 41.8753C130.135 41.6807 130.333 41.5365 130.729 41.4392C131.125 41.3418 131.471 41.2932 131.769 41.2932H132.215V41.7293ZM132.215 36.0684C132.265 35.9711 132.313 35.8756 132.363 35.7782C132.413 35.6809 132.461 35.5854 132.511 35.4881C132.561 35.5854 132.61 35.6809 132.66 35.7782C132.71 35.8756 132.758 35.9711 132.808 36.0684H132.213H132.215ZM135.929 40.7129C135.831 40.9057 135.483 41.003 134.888 41.003H133.998V41.5834C134.196 41.5347 134.394 41.486 134.592 41.4374C134.79 41.3887 134.988 41.34 135.186 41.2914C135.236 41.7744 135.285 42.2592 135.335 42.7422C135.385 43.2252 135.433 43.71 135.483 44.193H135.186C134.988 44.193 134.74 43.7569 134.444 42.8864C134.148 42.0159 133.8 41.5797 133.404 41.5797H132.81C132.908 41.2896 133.008 40.9994 133.106 40.7092C133.304 40.1289 133.798 39.8387 134.59 39.8387C135.383 39.8387 135.829 39.9361 135.927 40.1289C136.027 40.3218 136.027 40.5164 135.927 40.7092L135.929 40.7129ZM133.85 36.5027C133.9 36.3568 133.95 36.2126 133.998 36.0666C134.048 36.2594 134.098 36.4541 134.146 36.6469C134.196 36.8398 134.244 37.0344 134.294 37.2273C134.196 37.1786 134.096 37.1299 133.998 37.0813C133.8 36.984 133.75 36.7911 133.85 36.5009V36.5027ZM140.236 39.9865C140.138 40.228 140.038 40.4695 139.94 40.7129C139.692 40.6155 139.444 40.52 139.198 40.4227C138.95 40.3254 138.702 40.2298 138.456 40.1325C138.556 39.891 138.654 39.6477 138.754 39.4062C138.852 39.1647 138.952 38.9214 139.05 38.6799C139.148 38.7772 139.248 38.8727 139.346 38.9701C139.444 39.0674 139.544 39.1629 139.642 39.2602C139.542 39.3575 139.444 39.4531 139.346 39.5504C139.248 39.6477 139.148 39.7432 139.05 39.8406C139.298 39.7432 139.544 39.6477 139.792 39.5504C140.04 39.4531 140.286 39.3575 140.534 39.2602C140.436 39.5017 140.336 39.7432 140.238 39.9865H140.236ZM144.692 36.5027V37.2291C144.544 37.1317 144.396 37.0362 144.246 36.9389C143.948 36.7461 143.85 36.5027 143.948 36.2126C144.046 35.9224 144.196 35.7764 144.394 35.7764H144.69V36.5027H144.692ZM145.582 33.4551V34.3256C145.434 34.2769 145.286 34.2283 145.136 34.1796C144.84 34.0823 144.542 34.1796 144.246 34.4698C144.098 34.6158 143.948 34.7599 143.8 34.9059C143.75 34.7599 143.7 34.6158 143.652 34.4698C143.602 34.3238 143.554 34.1796 143.504 34.0336C143.454 34.2265 143.406 34.4211 143.355 34.614C143.257 35.0015 143.305 35.243 143.504 35.3403C143.602 35.3889 143.702 35.4376 143.8 35.4863C143.602 35.4376 143.404 35.3889 143.205 35.3403C142.809 35.243 142.611 35.0501 142.611 34.76V34.3238C142.363 34.3725 142.117 34.4211 141.869 34.4698C141.373 34.5671 141.027 34.8086 140.829 35.1961C140.731 35.3889 140.63 35.5836 140.532 35.7764C140.136 35.5836 139.74 35.3889 139.344 35.1961C138.948 35.0033 138.552 34.8086 138.156 34.6158C138.206 34.9546 138.256 35.2934 138.304 35.6322C138.354 35.9711 138.404 36.3099 138.452 36.6487C138.304 36.5514 138.156 36.4559 138.006 36.3586C137.857 36.2612 137.709 36.1657 137.559 36.0684C137.361 36.4072 137.163 36.7461 136.965 37.0849C136.569 37.7625 136.223 38.1014 135.925 38.1014H135.479C135.677 37.7625 135.875 37.4237 136.073 37.0849C136.271 36.7461 136.469 36.4072 136.667 36.0684C136.469 36.1657 136.271 36.2612 136.073 36.3586C135.875 36.4559 135.677 36.5514 135.479 36.6487V36.2126C135.479 35.9224 135.727 35.7278 136.221 35.6322C136.717 35.5349 137.063 35.5836 137.261 35.7782C137.359 35.8756 137.459 35.9711 137.557 36.0684V34.6176C137.409 34.7149 137.261 34.8104 137.111 34.9077C136.963 35.0051 136.815 35.1006 136.665 35.1979C136.517 34.9077 136.369 34.6176 136.219 34.3274C135.923 33.7471 135.329 33.6498 134.436 34.0372C133.546 34.4247 133 34.4734 132.802 34.1832C132.604 33.8931 132.553 33.6029 132.654 33.3127C132.752 33.0226 133.05 32.8766 133.544 32.8766C134.038 32.8766 134.386 33.0226 134.584 33.3127C134.682 33.4587 134.782 33.6029 134.88 33.7489V32.8784C135.028 32.927 135.176 32.9757 135.327 33.0244C135.623 33.1217 135.821 33.073 135.921 32.8784C135.971 32.7811 136.021 32.6855 136.069 32.5882C136.119 32.7811 136.169 32.9757 136.217 33.1685C136.317 33.556 136.713 33.7489 137.405 33.7489C138.098 33.7489 138.544 33.8462 138.742 34.039C138.94 34.2319 139.386 34.185 140.078 33.8931C140.771 33.6029 141.317 33.5542 141.713 33.7471C141.911 33.8444 142.109 33.9399 142.307 34.0372C142.407 33.8444 142.505 33.6498 142.603 33.4569C142.801 33.0694 143.247 33.0208 143.94 33.3109C144.632 33.6011 145.078 33.5524 145.276 33.1649C145.374 32.9721 145.474 32.7775 145.572 32.5846V33.4551H145.582ZM214.5 31.5681V31.132C214.598 31.278 214.698 31.4221 214.798 31.5681C214.896 31.7141 214.996 31.8583 215.094 32.0043C214.798 32.1016 214.5 32.1971 214.204 32.2944C213.906 32.3918 213.61 32.4873 213.313 32.5846C213.263 32.3431 213.213 32.0998 213.165 31.8583C213.115 31.6168 213.065 31.3735 213.017 31.132C213.067 31.278 213.115 31.4221 213.165 31.5681C213.263 31.8583 213.512 32.0043 213.908 32.0043H214.502V31.5681H214.5ZM214.5 33.1649C214.45 33.2623 214.402 33.3578 214.352 33.4551C214.254 33.6479 214.104 33.7453 213.906 33.7453H213.61V32.8748C213.758 32.9234 213.906 32.9721 214.056 33.0208C214.204 33.0694 214.352 33.1181 214.502 33.1667L214.5 33.1649ZM210.044 29.1008C210.192 29.1495 210.342 29.1981 210.49 29.2468C210.638 29.2955 210.787 29.3441 210.937 29.3928V29.1026C210.937 28.9098 211.135 28.7638 211.531 28.6665C211.927 28.5692 212.175 28.6665 212.273 28.9566C212.323 29.1026 212.371 29.2468 212.421 29.3928C212.519 29.2955 212.619 29.1999 212.717 29.1026C212.915 28.9098 213.211 28.8611 213.608 28.9566C213.806 29.0053 214.004 29.054 214.202 29.1026C214.004 29.1513 213.806 29.1999 213.608 29.2486C213.211 29.3459 213.013 29.5388 213.013 29.8289V30.2651C212.517 30.2164 212.023 30.1678 211.529 30.1191C210.538 30.0218 210.044 29.8289 210.044 29.5388V29.1026V29.1008ZM202.617 38.0996H202.321C202.371 38.0022 202.419 37.9067 202.469 37.8094C202.519 37.7121 202.567 37.6166 202.617 37.5192C202.667 37.6166 202.716 37.7121 202.766 37.8094C202.816 37.9067 202.866 38.0022 202.914 38.0996H202.617ZM202.171 30.2615C202.023 29.9713 201.875 29.6812 201.725 29.391C202.021 29.4883 202.319 29.5838 202.615 29.6812C203.21 29.874 203.506 30.2128 203.506 30.6976V31.4239C203.358 31.3753 203.21 31.3266 203.06 31.278C202.764 31.1806 202.465 30.8418 202.169 30.2615H202.171ZM205.439 31.5681C205.34 31.8583 204.992 32.0043 204.398 32.0043C204.126 32.0043 203.91 32.0259 203.74 32.0656C203.562 32.2386 203.386 32.4116 203.21 32.5846C203.26 32.4873 203.31 32.3918 203.358 32.2944C203.412 32.1899 203.54 32.1142 203.74 32.0656C203.762 32.0457 203.782 32.0241 203.804 32.0043C204.002 31.8114 204.2 31.6168 204.398 31.4239C204.25 31.278 204.1 31.1338 203.952 30.9878C203.804 30.8418 203.656 30.6976 203.506 30.5516C203.704 30.4543 203.902 30.3588 204.1 30.2615C204.496 30.0686 204.792 29.9713 204.99 29.9713H205.286C205.188 30.2128 205.088 30.4543 204.99 30.6976C204.892 30.9391 204.792 31.1806 204.694 31.4239C204.842 31.3753 204.99 31.3266 205.14 31.278C205.288 31.2293 205.437 31.1806 205.587 31.132C205.537 31.278 205.489 31.4221 205.439 31.5681ZM207.815 32.5846C207.123 32.5846 206.677 32.4873 206.479 32.2944C206.393 32.2097 206.305 32.125 206.219 32.0403C206.107 32.2224 205.997 32.4026 205.885 32.5846C205.935 32.4873 205.983 32.3918 206.033 32.2944C206.083 32.1971 206.131 32.1016 206.181 32.0043C206.193 32.0169 206.205 32.0277 206.219 32.0403C206.257 31.979 206.293 31.9196 206.331 31.8583C206.629 31.3735 206.925 31.1806 207.221 31.278C207.369 31.3266 207.517 31.3753 207.667 31.4239H206.777V32.0043H207.667C208.262 32.0043 208.608 32.1016 208.708 32.2944C208.758 32.3918 208.806 32.4873 208.856 32.5846H207.815ZM209.45 32.5846C209.648 32.3918 209.846 32.1971 210.044 32.0043C210.44 31.6168 210.935 31.4239 211.529 31.4239H212.419V32.5846H209.448H209.45ZM212.717 38.0996H212.421C212.471 38.0022 212.519 37.9067 212.569 37.8094C212.619 37.7121 212.667 37.6166 212.717 37.5192C212.767 37.6166 212.815 37.7121 212.865 37.8094C212.915 37.9067 212.963 38.0022 213.013 38.0996H212.717ZM213.608 36.9389C213.211 36.8416 212.815 36.7461 212.419 36.6487V37.2291H211.529C211.629 37.0362 211.727 36.8416 211.825 36.6487C212.023 36.2612 212.271 36.0684 212.567 36.0684H213.013C212.913 35.9224 212.815 35.7782 212.717 35.6322C212.619 35.4863 212.519 35.3421 212.421 35.1961H213.311C213.261 35.0988 213.211 35.0033 213.163 34.9059C213.113 34.8086 213.063 34.7131 213.015 34.6158C213.311 34.7618 213.61 34.9059 213.906 35.0519C214.204 35.1979 214.5 35.3421 214.796 35.4881C214.698 35.6809 214.598 35.8756 214.498 36.0684C214.4 36.2612 214.3 36.4559 214.202 36.6487H215.092C215.042 36.7461 214.992 36.8416 214.944 36.9389C214.846 37.1317 214.4 37.1317 213.608 36.9389ZM215.686 37.6652V38.1014H215.092C215.19 37.9554 215.29 37.8112 215.388 37.6652C215.486 37.5192 215.586 37.375 215.684 37.2291V37.6652H215.686ZM217.171 29.9731C217.121 29.7316 217.071 29.4883 217.023 29.2468C216.973 29.0053 216.925 28.762 216.875 28.5205H217.765C217.665 28.762 217.567 29.0035 217.469 29.2468C217.369 29.4883 217.271 29.7298 217.171 29.9731ZM219.844 32.5864C219.448 32.7793 219.25 33.0226 219.25 33.3127V33.7489H219.844V34.6194H219.25C218.853 34.6194 218.507 34.4734 218.209 34.1832C218.061 34.0372 217.913 33.8931 217.763 33.7471C218.011 33.7957 218.257 33.8444 218.505 33.8931C218.753 33.9417 219.002 33.9904 219.248 34.039C219.198 33.7975 219.15 33.5542 219.1 33.3127C219.05 33.0712 219.002 32.8279 218.952 32.5864H219.842V31.4258C219.94 31.5717 220.04 31.7159 220.138 31.8619C220.238 32.0079 220.336 32.1521 220.434 32.298C220.236 32.3954 220.038 32.4909 219.84 32.5882L219.844 32.5864ZM221.18 33.4569C221.082 33.6498 220.932 33.7471 220.734 33.7471H220.438V32.5864C220.586 32.6837 220.734 32.7793 220.884 32.8766C221.18 33.0694 221.28 33.2641 221.18 33.4569ZM225.042 30.8436H224.596C224.696 30.6976 224.794 30.5535 224.892 30.4075C224.99 30.2615 225.09 30.1173 225.188 29.9713C225.238 30.1173 225.286 30.2615 225.336 30.4075C225.386 30.5535 225.434 30.6976 225.484 30.8436H225.038H225.042ZM226.526 30.8436C226.476 30.9409 226.428 31.0365 226.378 31.1338C226.328 30.9878 226.278 30.8436 226.23 30.6976C226.18 30.5516 226.13 30.4075 226.082 30.2615C226.18 30.3101 226.28 30.3588 226.378 30.4075C226.476 30.4561 226.576 30.5048 226.674 30.5535C226.624 30.6508 226.576 30.7463 226.526 30.8436ZM293.003 23.2344C285.944 22.8451 269.81 22.5856 269.81 22.5856L256.533 22.1909H248.834C253.067 21.4105 265.137 21.7295 271.115 22.1909C276.781 21.3871 299.055 21.2952 301.07 21.3565C303.375 21.4249 300.062 23.6237 293.003 23.2344ZM354.26 28.3763C354.11 28.425 353.962 28.4736 353.814 28.5223V27.942C353.962 27.9906 354.11 28.0393 354.26 28.0879C354.408 28.1366 354.556 28.1853 354.704 28.2339C354.556 28.2826 354.408 28.3313 354.26 28.3799V28.3763Z" fill="#FFFF00"/>
</svg>
